<svg xmlns="http://www.w3.org/2000/svg" viewBox="0 0 158.06 329.81"><defs><style>.cls-1{fill:#fff;stroke:#000;stroke-miterlimit:10;stroke-width:5px;}</style></defs><title>Asset 2</title><g id="Layer_2" data-name="Layer 2"><g id="Layer_2-2" data-name="Layer 2"><g id="Black_White_BG" data-name="Black &amp; White BG"><rect class="cls-1" x="2.59" y="85.89" width="152.97" height="82"/><path class="cls-1" d="M143.56,249.89h-129a12,12,0,0,1-12-12v-70h153v70A12,12,0,0,1,143.56,249.89Z"/><path class="cls-1" d="M83.16,66.64C66,45,100.58,35.8,100.58,35.8A72.44,72.44,0,0,0,93,27.95a68.2,68.2,0,0,1,8.73-4.65,48.69,48.69,0,0,0-6.56-6.22C97.39,15.71,98.79,15,98.79,15S94.9.8,74.81,2.67c0,0-69.53,8.46-72.22,83.22h153V67.55S100.35,80.19,83.16,66.64Z"/><path class="cls-1" d="M57.58,250h43a0,0,0,0,1,0,0v55.86a21.5,21.5,0,0,1-21.5,21.5h0a21.5,21.5,0,0,1-21.5-21.5V250a0,0,0,0,1,0,0Z"/></g></g></g></svg>