<svg xmlns="http://www.w3.org/2000/svg" viewBox="0 0 24.51 52.94"><title>2Asset 2</title><g id="Layer_2" data-name="Layer 2"><g id="Layer_1-2" data-name="Layer 1"><rect x="0.5" y="14.3" width="23.51" height="11.77"/><path d="M24.51,26.57H0V13.8H24.51ZM1,25.57H23.51V14.8H1Z"/><path d="M22.93,39.63A1.09,1.09,0,0,0,24,38.55V27.86H.5V38.55a1.09,1.09,0,0,0,1.09,1.09Z"/><path d="M22.93,40.13H1.59A1.59,1.59,0,0,1,0,38.55V27.36H24.51V38.55A1.59,1.59,0,0,1,22.93,40.13ZM1,28.36V38.55a.59.59,0,0,0,.59.59H22.93a.59.59,0,0,0,.59-.59V28.36Z"/><path d="M11.63.52c-.4.05-10.16,1.4-11.08,12H24v-1c-2.66.51-9.07,1.48-11.64-.55l-.15-.15a3.48,3.48,0,0,1-.84-3.36,5.07,5.07,0,0,1,2.85-2.68L14,4.48l-.89-.8,1-.63.39-.24-.12-.09-1-.79.94-.6A3,3,0,0,0,11.63.52Z"/><path d="M24.51,13H0l0-.54C1,1.46,11.14.08,11.57,0h0A3.43,3.43,0,0,1,14.7,1l.38.44L14.24,2l1.12.91-.62.36-.38.23-.45.28.39.35.28.26.53.51-.67.31a4.6,4.6,0,0,0-2.58,2.38,3,3,0,0,0,.76,2.89l.11.1c2.43,1.91,9.18.8,11.19.41l.59-.11ZM1.11,12H13.3a4.88,4.88,0,0,1-1.23-.69l-.19-.18a4,4,0,0,1-1-3.87,5,5,0,0,1,2.46-2.64l-1.12-1,1.36-.85-1.1-.87,1-.6A3.14,3.14,0,0,0,11.69,1C11.2,1.08,2.27,2.36,1.11,12Z"/><path d="M14.92,41.44H9.6v8.34a2.66,2.66,0,0,0,5.32,0Z"/><path d="M12.26,52.94A3.16,3.16,0,0,1,9.1,49.78V40.94h6.32v8.84A3.16,3.16,0,0,1,12.26,52.94Zm-2.16-11v7.84a2.16,2.16,0,1,0,4.32,0V41.94Z"/></g></g></svg>