<svg xmlns="http://www.w3.org/2000/svg" viewBox="0 0 152.97 324.81"><defs><style>.cls-1{fill:#3e979e;}.cls-2{fill:#545da9;}.cls-3{fill:#2e2e3d;}.cls-4{fill:#4a4960;}.cls-5{fill:#5a5a77;}.cls-6{fill:#e8c27d;}.cls-7{fill:#368384;}.cls-8{fill:#4b5493;}</style></defs><title>1Asset 3</title><g id="Layer_2" data-name="Layer 2"><g id="Layer_2-2" data-name="Layer 2"><g id="White_BG" data-name="White BG"><rect class="cls-1" y="83.39" width="152.97" height="82"/><path class="cls-2" d="M141,247.39H12a12,12,0,0,1-12-12v-70H153v70A12,12,0,0,1,141,247.39Z"/><path class="cls-3" d="M153,83.39H0L15.38,43c12.33-14.33,20.5-17.83,32.5-25.83,0,0,19.45-2.31,25.89-1.18C85.88,18.07,98,33.3,98,33.3s-37.44,10-15.11,33.5C95.6,80.18,153,65,153,65Z"/><path class="cls-4" d="M153,83.39H0L16.88,41C29.54,25.13,34.15,19.08,47.54,13c0,0,23.53-6.89,30-5.76C89.63,9.32,99.18,20.8,99.18,20.8s-40.09,16.81-21,41C91.82,79.06,153,65,153,65Z"/><path class="cls-5" d="M72.22.17c20.09-1.87,24,12.29,24,12.29S51.68,36.17,72.7,62.8C87.7,81.8,153,65,153,65V83.39H0C2.68,8.63,72.22.17,72.22.17Z"/><path class="cls-6" d="M55,247.45H98a0,0,0,0,1,0,0v55.86a21.5,21.5,0,0,1-21.5,21.5h0A21.5,21.5,0,0,1,55,303.31V247.45a0,0,0,0,1,0,0Z"/><path class="cls-7" d="M98,165.45H55V151.89a21.56,21.56,0,0,1,21.5-21.5h0A21.56,21.56,0,0,1,98,151.89Z"/><rect class="cls-8" x="54.99" y="165.45" width="43" height="81.94"/></g></g></g></svg>