<svg xmlns="http://www.w3.org/2000/svg" viewBox="0 0 216.66 42.35"><title>Asset 7</title><g id="Layer_2" data-name="Layer 2"><g id="Layer_1-2" data-name="Layer 1"><path d="M19.94,41.83V27.48a4.47,4.47,0,0,0-1.28-3.38,4.82,4.82,0,0,0-3.49-1.23q-3.64,0-5,3.79l.21,15.12L.72,41.63,0,.51H9.74L10,17.69a11.25,11.25,0,0,1,4-2.82,12.3,12.3,0,0,1,5-1.08,9.18,9.18,0,0,1,7.51,3.43q2.79,3.44,2.85,9.28l.1,15.33Z"/><path d="M53.73,18q3.54,3.74,3.54,10.2,0,1.08-.05,1.64l-18.15.21a7.5,7.5,0,0,0,1.72,2.79,3.94,3.94,0,0,0,2.59,1.2q4.1.31,5.95-2.41l7.33,2.1a9.86,9.86,0,0,1-2.56,4.33,13.41,13.41,0,0,1-4.54,3,14.34,14.34,0,0,1-5.46,1.08,7.79,7.79,0,0,1-1-.05,13.07,13.07,0,0,1-6.54-2.31,14.81,14.81,0,0,1-4.77-5.38A15.28,15.28,0,0,1,30,27.17,10.13,10.13,0,0,1,30,26a11.52,11.52,0,0,1,2.08-6A12.69,12.69,0,0,1,37,15.79a15.18,15.18,0,0,1,6.74-1.49Q50.19,14.3,53.73,18ZM39.12,23.84l8.66.05a3.47,3.47,0,0,0-1.2-2.31,4,4,0,0,0-2.28-.92A4.67,4.67,0,0,0,39.12,23.84Z"/><path d="M60.73,11.77a6.53,6.53,0,0,1-2.31-2.18,5.37,5.37,0,0,1-.9-3,5.23,5.23,0,0,1,1.87-4.1A6.57,6.57,0,0,1,63.88.87a5.43,5.43,0,0,1,4,1.49,5.29,5.29,0,0,1,1.51,3.95,6.34,6.34,0,0,1-1.64,4.49,5.36,5.36,0,0,1-4.1,1.77A5.82,5.82,0,0,1,60.73,11.77ZM58,14.51H68.75V41.68H58.85Z"/><path d="M89.77,23.94a24.32,24.32,0,0,0-4.1-1.87,11,11,0,0,0-3.43-.59,6.07,6.07,0,0,0-2.54.46q-1,.46-1,1.18,0,1.28,3.59,1.28,5.23,0,8.15,2.05a6.57,6.57,0,0,1,2.92,5.69,8.42,8.42,0,0,1-1.72,5.1A12.05,12.05,0,0,1,87,41a14.5,14.5,0,0,1-6.33,1.38,16.93,16.93,0,0,1-6.46-1.26,12.43,12.43,0,0,1-4.87-3.36l5.18-5.84a9,9,0,0,0,2.82,1.67,9.21,9.21,0,0,0,3.23.59,6.1,6.1,0,0,0,2.69-.54q1.1-.54,1.1-1.31a.91.91,0,0,0-.72-.87,8,8,0,0,0-2.41-.26,6,6,0,0,1-.92.05,10.59,10.59,0,0,1-4.84-1.15A9.86,9.86,0,0,1,71.82,27,7,7,0,0,1,72,18.35,11.43,11.43,0,0,1,76.29,15a13.07,13.07,0,0,1,5.64-1.26,16.23,16.23,0,0,1,6,1.18,19.14,19.14,0,0,1,5.46,3.28Z"/><path d="M111.66,42.35,103.92,31l-.05,10.72-9.59.1V.51L104,0l-.05,23.43L110.07,14l10.36.67L112.53,27l10.25,14.87Z"/><path d="M124.71,11.77a6.53,6.53,0,0,1-2.31-2.18,5.36,5.36,0,0,1-.9-3,5.23,5.23,0,0,1,1.87-4.1A6.58,6.58,0,0,1,127.86.87a5.43,5.43,0,0,1,4,1.49,5.29,5.29,0,0,1,1.51,3.95,6.34,6.34,0,0,1-1.64,4.49,5.36,5.36,0,0,1-4.1,1.77A5.82,5.82,0,0,1,124.71,11.77ZM122,14.51h10.71V41.68h-9.89Z"/><path d="M176.2,41.83h-9.95l-.05-14.25a8.29,8.29,0,0,0-.64-3.9,2.49,2.49,0,0,0-2.33-1.08,2.36,2.36,0,0,0-2.08,1.56,8.74,8.74,0,0,0-.79,4l.05,1-.05-.15V41.68l-9.64.1-.1-14.2a6.57,6.57,0,0,0-.87-3.67,3,3,0,0,0-5,.08,7.43,7.43,0,0,0-.87,3.95L144,29l-.05-.1.41,13h-9.64v-27l8.82-.31.05,2.05A9.83,9.83,0,0,1,146.8,15a14.8,14.8,0,0,1,4.18-.56q4.72,0,7.13,2.41a7.08,7.08,0,0,1,3.38-2.05A20.05,20.05,0,0,1,167,14.2,7.43,7.43,0,0,1,173.92,18q2.18,3.77,2.23,12.18Z"/><path d="M183.94,40a14.62,14.62,0,0,1-5.25-5.36,14.16,14.16,0,0,1-1.92-7.15,12.26,12.26,0,0,1,2.18-7.28,14.15,14.15,0,0,1,5.49-4.67A15.31,15.31,0,0,1,191.12,14a16.79,16.79,0,0,1,7.69,1.67,12.06,12.06,0,0,1,5.08,4.74,14,14,0,0,1,1.79,7.18,14.52,14.52,0,0,1-1.9,7.36,13.83,13.83,0,0,1-5.2,5.2,14.42,14.42,0,0,1-7.31,1.9A14,14,0,0,1,183.94,40Zm11.2-8.1a5.07,5.07,0,0,0,1.41-3.79,5.86,5.86,0,0,0-1.33-3.9,4.86,4.86,0,0,0-3.95-1.59,5.13,5.13,0,0,0-3.82,1.54A5.2,5.2,0,0,0,185.94,28a5,5,0,0,0,1.59,3.82,5.64,5.64,0,0,0,4,1.51A4.88,4.88,0,0,0,195.14,31.94Zm3.56-20.68h-14A2.75,2.75,0,0,1,182,8.51h0a2.75,2.75,0,0,1,2.75-2.75h14a2.75,2.75,0,0,1,2.75,2.75h0A2.75,2.75,0,0,1,198.7,11.26Z"/><path d="M209.21,7.34v3.9l-1.36.06V7.37l-1.43,0L206.33,6l4.31-.1.11,1.37Z"/><path d="M215.29,11.26l-.14-3.08-.66,3.08h-1.37l-.76-2.88,0,2.81h-1.37V6l1,.06,1,0,.77,2.76.52-2.8h2.15l.24,5.17Z"/></g></g></svg>