<svg id="Calque_1" data-name="Calque 1" xmlns="http://www.w3.org/2000/svg" viewBox="0 0 806.01 163.51"><defs><style>.cls-1{fill:#fff;}</style></defs><title>logo-white</title><path class="cls-1" d="M209,491.56V446.37q0-6.78-4-10.65t-11-3.87q-11.46,0-15.82,11.94l.65,47.61-30.34-.49-2.26-129.43H176.9l.81,54.07a35.31,35.31,0,0,1,12.58-8.88A38.78,38.78,0,0,1,206,403.28q14.85,0,23.64,10.81t9,29.21l.32,48.26Z" transform="translate(-22.26 -343.21)"/><path class="cls-1" d="M315.37,416.68q11.13,11.77,11.13,32.11c0,2.26-.05,4-.16,5.17l-57.13.64a23.63,23.63,0,0,0,5.41,8.8,12.46,12.46,0,0,0,8.15,3.79q12.92,1,18.72-7.59l23.08,6.62a31.06,31.06,0,0,1-8.07,13.64,42.23,42.23,0,0,1-14.28,9.44A45.17,45.17,0,0,1,285,492.69a25.84,25.84,0,0,1-3.23-.16,41.16,41.16,0,0,1-20.58-7.27,46.63,46.63,0,0,1-15-16.94,48,48,0,0,1-5.57-22.92,31.62,31.62,0,0,1,.16-3.71,36.33,36.33,0,0,1,6.53-19,39.93,39.93,0,0,1,15.5-13.07,47.77,47.77,0,0,1,21.22-4.69Q304.24,404.89,315.37,416.68Zm-46,18.23,27.28.16a10.93,10.93,0,0,0-3.79-7.26,12.66,12.66,0,0,0-7.19-2.9Q273.73,423.93,269.37,434.91Z" transform="translate(-22.26 -343.21)"/><path class="cls-1" d="M337.4,396.91a20.64,20.64,0,0,1-7.26-6.86,16.87,16.87,0,0,1-2.83-9.36,16.44,16.44,0,0,1,5.89-12.91,20.68,20.68,0,0,1,14.12-5.17q7.76,0,12.51,4.68t4.76,12.43q0,8.55-5.16,14.12a16.9,16.9,0,0,1-12.91,5.57A18.31,18.31,0,0,1,337.4,396.91Zm-8.48,8.63h33.73v85.53H331.51Z" transform="translate(-22.26 -343.21)"/><path class="cls-1" d="M428.82,435.24a76.47,76.47,0,0,0-12.91-5.9,34.83,34.83,0,0,0-10.81-1.85,19.09,19.09,0,0,0-8,1.45Q394,430.4,394,432.65q0,4,11.3,4,16.46,0,25.66,6.45a20.7,20.7,0,0,1,9.2,17.92,26.43,26.43,0,0,1-5.41,16.05,37.9,37.9,0,0,1-14.52,11.71,45.71,45.71,0,0,1-19.93,4.35,53.43,53.43,0,0,1-20.34-3.95,39.27,39.27,0,0,1-15.33-10.57l16.3-18.4a28.28,28.28,0,0,0,8.88,5.25,29.14,29.14,0,0,0,10.16,1.85,19.22,19.22,0,0,0,8.48-1.69c2.31-1.13,3.47-2.51,3.47-4.12,0-1.29-.76-2.2-2.26-2.74A25,25,0,0,0,402,458a18.8,18.8,0,0,1-2.9.16,33.32,33.32,0,0,1-15.25-3.63,31,31,0,0,1-11.54-9.76,22,22,0,0,1,.64-27.12,36,36,0,0,1,13.4-10.41,41.2,41.2,0,0,1,17.75-4,51.14,51.14,0,0,1,18.8,3.71,60.23,60.23,0,0,1,17.19,10.33Z" transform="translate(-22.26 -343.21)"/><path class="cls-1" d="M497.73,493.17l-24.37-35.66-.16,33.73-30.18.32V361.48l30.51-1.61-.17,73.75,19.37-29.69,32.6,2.09-24.85,38.74,32.27,46.8Z" transform="translate(-22.26 -343.21)"/><path class="cls-1" d="M538.8,396.91a20.64,20.64,0,0,1-7.26-6.86,16.94,16.94,0,0,1-2.82-9.36,16.44,16.44,0,0,1,5.89-12.91,20.65,20.65,0,0,1,14.12-5.17q7.74,0,12.51,4.68T566,379.72q0,8.55-5.17,14.12a16.87,16.87,0,0,1-12.91,5.57A18.33,18.33,0,0,1,538.8,396.91Zm-8.47,8.63h33.73v85.53H532.91Z" transform="translate(-22.26 -343.21)"/><path class="cls-1" d="M700.91,491.56H669.6l-.16-44.87q0-8.87-2-12.26T660.08,431q-4,0-6.53,4.92T651,448.47l.16,3.06-.16-.48v40l-30.34.33-.32-44.71q0-7.41-2.74-11.54a9.36,9.36,0,0,0-15.66.25q-2.75,4.35-2.74,12.42l.16,3.39-.16-.32,1.29,40.83H570.19V406.67l27.76-1,.16,6.46a31,31,0,0,1,10.25-5,46.67,46.67,0,0,1,13.15-1.77q14.85,0,22.43,7.58a22.29,22.29,0,0,1,10.65-6.45q6.61-1.93,17.27-1.94,15,0,21.87,11.86t7,38.33Z" transform="translate(-22.26 -343.21)"/><path class="cls-1" d="M725.28,485.91A46.05,46.05,0,0,1,708.74,469a44.49,44.49,0,0,1-6-22.51q0-13.23,6.86-22.91a44.53,44.53,0,0,1,17.27-14.69,48.19,48.19,0,0,1,21.06-5q13.88,0,24.2,5.24a37.94,37.94,0,0,1,16,14.93q5.66,9.67,5.65,22.59a45.72,45.72,0,0,1-6,23.16,43.51,43.51,0,0,1-16.38,16.38,45.42,45.42,0,0,1-23,6A44,44,0,0,1,725.28,485.91Zm35.26-25.5q4.44-4.35,4.44-11.94a18.5,18.5,0,0,0-4.19-12.27q-4.2-5-12.43-5a16.13,16.13,0,0,0-12,4.84A16.35,16.35,0,0,0,731.58,448a15.87,15.87,0,0,0,5,12,17.75,17.75,0,0,0,12.75,4.76A15.32,15.32,0,0,0,760.54,460.41Zm18.27-65.09H720.66a1.57,1.57,0,0,1-1.57-1.57V379.6a1.57,1.57,0,0,1,1.57-1.57h58.15a1.57,1.57,0,0,1,1.57,1.57v14.15A1.58,1.58,0,0,1,778.81,395.32Z" transform="translate(-22.26 -343.21)"/><path class="cls-1" d="M804.83,383l0,12.27-4.27.2-.05-12.36-4.49.11-.3-4.32,13.56-.33.35,4.32Z" transform="translate(-22.26 -343.21)"/><path class="cls-1" d="M824,395.33l-.46-9.7-2.07,9.7H817.1l-2.4-9.07-.11,8.83-4.32,0V378.74l3.12.19,3.3.11,2.42,8.68,1.64-8.81h6.76l.76,16.27Z" transform="translate(-22.26 -343.21)"/><path class="cls-1" d="M59.65,376l-.47-.46C55.6,371,55.76,367.31,56.53,365c1.4-4.23,5.66-6.92,9-8.44-.27-.26-.55-.53-.85-.8l-2.8-2.51,3.19-2,1.24-.74-.37-.3-3.13-2.48,3-1.88c-1.2-1.38-3.66-3-8.45-2.55-1.26.16-32,4.38-35,37.44a4.53,4.53,0,0,0,0,.52v77.24a7.93,7.93,0,0,0,7.92,7.92H88.36a7.92,7.92,0,0,0,7.92-7.92V377.73C87.9,379.35,67.73,382.38,59.65,376Z" transform="translate(-22.26 -343.21)"/><path class="cls-1" d="M67.64,472.09H50.9v26.26a8.37,8.37,0,0,0,16.74,0Z" transform="translate(-22.26 -343.21)"/></svg>