<svg id="svg2989" xmlns="http://www.w3.org/2000/svg" viewBox="0 0 526.43 445.44"><title>shopping-cart</title><path id="path2993" d="M224.09,463.63a40.51,40.51,0,0,1-40.49,40.5A40.5,40.5,0,1,1,212.23,435,39,39,0,0,1,224.09,463.63Zm283.47,0A40.49,40.49,0,1,1,495.7,435,39,39,0,0,1,507.56,463.63Zm40.49-344.2v162A19.92,19.92,0,0,1,543,294.85a19.63,19.63,0,0,1-13,6.8l-330.29,38.6c.22,1.48.69,3.74,1.43,6.8s1.37,5.85,1.9,8.39a34.85,34.85,0,0,1,.79,7q0,5.06-7.6,20.24H487.31a20.25,20.25,0,0,1,0,40.5h-324a20.54,20.54,0,0,1-20.25-20.25q0-4.42,3.49-12.5t9.33-18.82q5.85-10.76,6.48-12l-56-260.37H41.87a19.49,19.49,0,0,1-14.24-6,19.88,19.88,0,0,1,0-28.48,19.49,19.49,0,0,1,14.24-6h81a19.24,19.24,0,0,1,9,2.06,20.3,20.3,0,0,1,6.33,4.9,25.45,25.45,0,0,1,4.11,7.75,56.78,56.78,0,0,1,2.38,8.39q.63,3.48,1.74,9.33t1.42,8.07h380a20.53,20.53,0,0,1,20.24,20.25Z" transform="translate(-21.62 -58.68)"/></svg>